<svg preserveAspectRatio="none"  xmlns="http://www.w3.org/2000/svg" class="nion-icon" viewBox="0 0 1251 1024">
<path d="M217.96887969 736.7714225a24.55928156 24.55928156 0 0 1-22.8761775-33.45167625l155.23822031-399.33026531a24.54525562 24.54525562 0 0 1 43.63445156-4.20775875l185.08525032 293.56125375 153.79355718-172.86872625a24.54525562 24.54525562 0 0 1 33.84440063-2.72101688l256.47687937 208.98531657a24.54946312 24.54946312 0 1 1-31.01117718 38.06618437L753.8969975 470.63072562l-159.89480625 179.68529438a24.54525562 24.54525562 0 0 1-39.10409813-3.22594781L378.43874656 367.19000656l-137.5796625 353.92855594a24.55928156 24.55928156 0 0 1-22.89020437 15.65286zM919.75279438 400.02454531A123.97457813 123.97457813 0 1 1 1043.75542437 276.04996719a124.11483656 124.11483656 0 0 1-124.00263 123.97457812z m-1e-8-198.85864593A74.88406781 74.88406781 0 1 0 994.66491312 276.04996719a74.9682225 74.9682225 0 0 0-74.91211875-74.88406782z" p-id="15851"/>
</svg>