<svg preserveAspectRatio="none"  class="nion-icon" viewBox="0 0 1024 1024" xmlns="http://www.w3.org/2000/svg"><path d="M512 949.3504a437.3504 437.3504 0 1 1 0-874.7008 437.3504 437.3504 0 0 1 0 874.7008z m0-64a373.3504 373.3504 0 1 0 0-746.7008 373.3504 373.3504 0 0 0 0 746.7008z"  p-id="18788"></path><path d="M512 716.8a183.5008 183.5008 0 0 0 181.0432-153.6H330.9568A183.5008 183.5008 0 0 0 512 716.8z m233.728-204.8a234.6496 234.6496 0 1 1-467.456 0h467.456z"  p-id="18789"></path><path d="M375.4496 409.6a51.2 51.2 0 1 0 0-102.4 51.2 51.2 0 0 0 0 102.4zM648.5504 409.6a51.2 51.2 0 1 0 0-102.4 51.2 51.2 0 0 0 0 102.4z" p-id="18790"></path></svg>