<svg preserveAspectRatio="none"  class="nion-icon"  viewBox="0 0 1024 1024"  version="1.1" xmlns="http://www.w3.org/2000/svg" p-id="5274" ><path d="M93.090909 93.090909v232.727273a46.545455 46.545455 0 0 1-93.090909 0V46.545455a46.545455 46.545455 0 0 1 46.545455-46.545455h279.272727a46.545455 46.545455 0 0 1 0 93.090909z m0 837.818182h232.727273a46.545455 46.545455 0 0 1 0 93.090909H46.545455a46.545455 46.545455 0 0 1-46.545455-46.545455v-279.272727a46.545455 46.545455 0 0 1 93.090909 0zM930.909091 93.090909h-232.727273a46.545455 46.545455 0 0 1 0-93.090909h279.272727a46.545455 46.545455 0 0 1 46.545455 46.545455v279.272727a46.545455 46.545455 0 0 1-93.090909 0z m0 837.818182v-232.727273a46.545455 46.545455 0 0 1 93.090909 0v279.272727a46.545455 46.545455 0 0 1-46.545455 46.545455h-279.272727a46.545455 46.545455 0 0 1 0-93.090909z" fill="#409EFF" p-id="5275"></path><path d="M93.090909 93.090909v232.727273a46.545455 46.545455 0 0 1-93.090909 0V46.545455a46.545455 46.545455 0 0 1 46.545455-46.545455h279.272727a46.545455 46.545455 0 0 1 0 93.090909z m0 837.818182h232.727273a46.545455 46.545455 0 0 1 0 93.090909H46.545455a46.545455 46.545455 0 0 1-46.545455-46.545455v-279.272727a46.545455 46.545455 0 0 1 93.090909 0zM930.909091 93.090909h-232.727273a46.545455 46.545455 0 0 1 0-93.090909h279.272727a46.545455 46.545455 0 0 1 46.545455 46.545455v279.272727a46.545455 46.545455 0 0 1-93.090909 0z m0 837.818182v-232.727273a46.545455 46.545455 0 0 1 93.090909 0v279.272727a46.545455 46.545455 0 0 1-46.545455 46.545455h-279.272727a46.545455 46.545455 0 0 1 0-93.090909z" p-id="5276"></path></svg>