<svg preserveAspectRatio="none"  class="nion-icon"  viewBox="0 0 1024 1024" version="1.1" xmlns="http://www.w3.org/2000/svg"><path d="M896 938.666667c-10.666667 0-21.333333-4.266667-29.866667-12.8l-768-768c-17.066667-17.066667-17.066667-42.666667 0-59.733334 17.066667-17.066667 42.666667-17.066667 59.733334 0l768 768c17.066667 17.066667 17.066667 42.666667 0 59.733334-8.533333 8.533333-19.2 12.8-29.866667 12.8z" p-id="10529"></path><path d="M512 678.4h-14.933333c-81.066667-6.4-145.066667-76.8-145.066667-162.133333v-121.6c0-23.466667 19.2-42.666667 42.666667-42.666667s42.666667 19.2 42.666666 42.666667v121.6c0 40.533333 29.866667 72.533333 66.133334 76.8 23.466667 2.133333 46.933333-6.4 61.866666-23.466667 14.933333-17.066667 42.666667-19.2 59.733334-2.133333 17.066667 14.933333 19.2 42.666667 2.133333 59.733333-27.733333 34.133333-70.4 51.2-115.2 51.2zM627.2 456.533333c-23.466667 0-42.666667-19.2-42.666667-42.666666v-194.133334c0-19.2-8.533333-38.4-23.466666-51.2-14.933333-14.933333-36.266667-21.333333-57.6-19.2-27.733333 2.133333-53.333333 23.466667-61.866667 51.2-6.4 23.466667-32 34.133333-53.333333 27.733334-23.466667-6.4-34.133333-32-27.733334-53.333334 19.2-61.866667 74.666667-104.533333 136.533334-110.933333 44.8-4.266667 89.6 10.666667 121.6 40.533333s51.2 70.4 51.2 115.2v194.133334c0 23.466667-19.2 42.666667-42.666667 42.666666z" p-id="10530"></path><path d="M512 810.666667c-70.4 0-140.8-25.6-194.133333-70.4C251.733333 682.666667 213.333333 599.466667 213.333333 512v-64c0-23.466667 19.2-42.666667 42.666667-42.666667s42.666667 19.2 42.666667 42.666667v64c0 61.866667 27.733333 121.6 74.666666 162.133333 49.066667 40.533333 110.933333 57.6 174.933334 49.066667 44.8-6.4 83.2-27.733333 115.2-61.866667 17.066667-17.066667 42.666667-17.066667 59.733333-2.133333 17.066667 17.066667 17.066667 42.666667 2.133333 59.733333-44.8 46.933333-100.266667 76.8-164.266666 85.333334-17.066667 4.266667-32 6.4-49.066667 6.4zM763.733333 593.066667h-6.4c-23.466667-4.266667-38.4-25.6-34.133333-49.066667 2.133333-12.8 4.266667-25.6 4.266667-38.4V448c0-23.466667 19.2-42.666667 42.666666-42.666667s42.666667 19.2 42.666667 42.666667v57.6c0 17.066667-2.133333 36.266667-4.266667 53.333333-6.4 19.2-23.466667 34.133333-44.8 34.133334z" p-id="10531"></path><path d="M512 960c-23.466667 0-42.666667-19.2-42.666667-42.666667v-149.333333c0-23.466667 19.2-42.666667 42.666667-42.666667s42.666667 19.2 42.666667 42.666667v149.333333c0 23.466667-19.2 42.666667-42.666667 42.666667z" p-id="10532"></path><path d="M661.333333 960H362.666667c-23.466667 0-42.666667-19.2-42.666667-42.666667s19.2-42.666667 42.666667-42.666666h298.666666c23.466667 0 42.666667 19.2 42.666667 42.666666s-19.2 42.666667-42.666667 42.666667z" p-id="10533"></path></svg>