<svg preserveAspectRatio="none"  class="nion-icon"  viewBox="0 0 1024 1024" version="1.1" xmlns="http://www.w3.org/2000/svg" p-id="4232" ><path d="M486.4 716.8C387.584 716.8 307.2 636.416 307.2 537.6v-307.2C307.2 131.584 387.584 51.2 486.4 51.2S665.6 131.584 665.6 230.4v307.2c0 98.816-80.384 179.2-179.2 179.2z m0-614.4A128.1536 128.1536 0 0 0 358.4 230.4v307.2C358.4 608.1536 415.8464 665.6 486.4 665.6s128-57.4464 128-128v-307.2C614.4 159.8464 556.9536 102.4 486.4 102.4z"  p-id="4233"></path><path d="M819.2 537.6a25.6 25.6 0 0 0-51.2 0c0 155.2896-126.3104 281.6-281.6 281.6S204.8 692.8896 204.8 537.6a25.6 25.6 0 0 0-51.2 0 333.2608 333.2608 0 0 0 307.2 331.8272V972.8H384a25.6 25.6 0 0 0 0 51.2h204.8a25.6 25.6 0 0 0 0-51.2H512v-103.3728a333.2608 333.2608 0 0 0 307.2-331.8272z" p-id="4234"></path></svg>