<svg xmlns="http://www.w3.org/2000/svg" preserveAspectRatio="none" class="nion-icon" viewBox="0 0 1024 1024"><path d="M517.12 787.626667l263.68-263.68c-58.026667 13.226667-127.573333 39.253333-180.48 93.013333-43.946667 44.373333-71.68 101.12-83.2 170.666667M885.333333 426.666667h12.8c16.64 0 31.573333 11.52 37.546667 27.306666 5.973333 15.36 2.986667 33.706667-9.813333 45.653334l-426.666667 426.666666c-8.533333 8.106667-18.773333 12.373333-29.866667 12.373334l-15.36-2.986667c-15.786667-5.973333-27.306667-20.906667-27.306666-37.546667-6.826667-144.64 31.146667-259.84 113.493333-342.186666C661.333333 435.2 837.12 426.666667 885.333333 426.666667M512 85.333333c192 0 355.84 128 408.746667 303.36L853.333333 384h-24.746666C778.24 258.986667 655.36 170.666667 512 170.666667a341.333333 341.333333 0 0 0-341.333333 341.333333c0 143.36 88.32 266.24 213.333333 316.586667-1.28 30.293333 0 61.013333 4.693333 91.733333C213.333333 867.413333 85.333333 704 85.333333 512 85.333333 276.053333 277.333333 85.333333 512 85.333333z" fill="" p-id="9902"/></svg>